<svg id="Layer_2" data-name="Layer 2" xmlns="http://www.w3.org/2000/svg" width="66.98" height="44.8" viewBox="0 0 66.98 44.8">
  <g id="Layer_1" data-name="Layer 1" transform="translate(0 0)">
    <g id="g302">
      <g id="g36" transform="translate(0.018)">
        <rect id="rect2" width="0.749" height="0.749" transform="translate(39.446 0.812)" fill="#111"/>
        <rect id="rect4" width="0.749" height="0.749" transform="translate(55.102 10.16)" fill="#111"/>
        <path id="path6" d="M72.76,9.657a1.1,1.1,0,0,0,.449-.379,1.524,1.524,0,0,0,.238-.6,3.693,3.693,0,0,0,.07-.793V2.6h-.749V7.886a3.162,3.162,0,0,1,0,.537.969.969,0,0,1-.115.361.494.494,0,0,1-.211.194.881.881,0,0,1-.352.062h-.185l-.2-.053-.2.731a2.52,2.52,0,0,0,.617.079A1.577,1.577,0,0,0,72.76,9.657Z" transform="translate(-8.503 -0.308)" fill="#111"/>
        <path id="path8" d="M69.776.987h-1.04V.81A.326.326,0,0,1,68.8.59a.291.291,0,0,1,.229-.07h.52V0h-.529a.934.934,0,0,0-.67.229.987.987,0,0,0-.229.722v.608h1.656Z" transform="translate(-8.101 0.002)" fill="#111"/>
        <rect id="rect10" width="0.749" height="0.749" transform="translate(53.596 10.16)" fill="#111"/>
        <rect id="rect12" width="0.749" height="0.749" transform="translate(40.952 0.812)" fill="#111"/>
        <path id="path14" d="M66.013,7.132a3.022,3.022,0,0,0,1,.449,4.8,4.8,0,0,0,1.2.15H68.4l.256-.537v.749a1,1,0,0,1-.335.881,1.586,1.586,0,0,1-.952.256,2.643,2.643,0,0,1-.6-.106,3.991,3.991,0,0,1-.643-.22l-.238.722a7.215,7.215,0,0,0,.767.238,2.9,2.9,0,0,0,.67.079,2.15,2.15,0,0,0,1.6-.52,1.93,1.93,0,0,0,.485-1.4V2.63H68.207a3.833,3.833,0,0,0-1.269.194,3.031,3.031,0,0,0-.987.537,2.4,2.4,0,0,0-.881,1.85,2.485,2.485,0,0,0,.247,1.137,2.247,2.247,0,0,0,.7.784Zm0-2.643a1.886,1.886,0,0,1,.467-.582,2.062,2.062,0,0,1,.652-.37,2.115,2.115,0,0,1,.74-.132h1.216l-.432.211V6.974h-.767a2.573,2.573,0,0,1-.793-.115,2,2,0,0,1-.652-.379A1.6,1.6,0,0,1,66,5.925a1.7,1.7,0,0,1-.115-.714,1.577,1.577,0,0,1,.123-.74Z" transform="translate(-7.738 -0.311)" fill="#111"/>
        <path id="path16" d="M44.524,9.687h1.568V9.123a.644.644,0,0,0,0,.079,1.128,1.128,0,0,0,.449.388,1.762,1.762,0,0,0,.687.123H61V2.665h-.758v6.3H47.3a.793.793,0,0,1-.352-.062.432.432,0,0,1-.22-.194,1.092,1.092,0,0,1-.115-.361,4.547,4.547,0,0,1,0-.537V2.63H44.524A3.454,3.454,0,0,0,41,6.154h0a3.419,3.419,0,0,0,3.524,3.533ZM41.881,6.163a2.687,2.687,0,0,1,2.643-2.8h1.762l-.458.238V7.811a4.353,4.353,0,0,0,.07.793,2.132,2.132,0,0,0,.115.379H44.524a2.714,2.714,0,0,1-2.643-2.828Z" transform="translate(-4.876 -0.311)" fill="#111"/>
        <path id="polygon18" d="M36.078,7.827l.326.863L31.629,2.62H30.88V9.677h.775V4.356l-.441-1.031,5,6.353h.634V2.62h-.775Z" transform="translate(-3.672 -0.31)" fill="#111"/>
        <path id="path20" d="M47.876,22.479l4.344-4.132V15.51H40.572v3.225h5.947l2.238-1.419-5.507,5.533.59,2.4h1.568c2.106,0,3.357.784,3.357,2.185v.044a2.146,2.146,0,0,1-2.423,2.079,5.286,5.286,0,0,1-4.15-2.053L39.55,29.968a8.317,8.317,0,0,0,6.7,2.969c3.824,0,6.168-2.379,6.168-5.612v-.044C52.44,24.1,50.167,22.876,47.876,22.479Z" transform="translate(-4.704 -1.843)" fill="#111"/>
        <path id="path22" d="M24.822,2.48A3.577,3.577,0,0,0,21.21,6.128h0a3.6,3.6,0,1,0,7.207,0h0A3.524,3.524,0,0,0,24.822,2.48Zm2.767,3.665a2.775,2.775,0,0,1-2.767,2.9,2.811,2.811,0,0,1-2.784-2.916h0a2.777,2.777,0,1,1,5.551.018Z" transform="translate(-2.522 -0.293)" fill="#111"/>
        <path id="path24" d="M64.436,15.169a8.872,8.872,0,0,0-9.146,8.864v.044a9.125,9.125,0,0,0,18.247-.044V23.98a8.811,8.811,0,0,0-9.1-8.811Zm5.154,8.908a5.137,5.137,0,0,1-5.154,5.339,5.207,5.207,0,0,1-5.2-5.383V23.98a5.128,5.128,0,0,1,5.154-5.33,5.207,5.207,0,0,1,5.2,5.383Z" transform="translate(-6.575 -1.802)" fill="#111"/>
        <rect id="rect26" width="0.802" height="7.057" transform="translate(16.511 2.31)" fill="#111"/>
        <path id="path28" d="M3.713,30.649l.714-.564,3.753-2.89c3.04-2.344,4.511-3.771,4.511-6.634v-.044c0-3.207-2.352-5.286-5.912-5.286-3.066,0-4.7,1.242-6.4,3.524l2.643,2.123c1.278-1.568,2.185-2.3,3.524-2.3a2.106,2.106,0,0,1,2.282,2.256c0,1.419-.837,2.352-2.969,4.115L.18,29.618v3.031H12.885v-3.3H6.339Z" transform="translate(-0.021 -1.81)" fill="#111"/>
        <path id="polygon30" d="M3.745,9.721l3.04-7.1H5.93L3.524,8.4l.079.775L3.4,8.7,1.322,3.668.89,2.62H0l3.04,7.1Z" transform="translate(0 -0.31)" fill="#111"/>
        <rect id="rect32" width="0.802" height="7.057" transform="translate(7.868 2.31)" fill="#111"/>
        <path id="path34" d="M14.226,5.748c-1.551-.335-1.912-.7-1.912-1.374h0c0-.634.582-1.137,1.5-1.137a3.136,3.136,0,0,1,2.044.758l.458-.625a3.674,3.674,0,0,0-2.485-.881A2.088,2.088,0,0,0,11.5,4.418h0c0,1.163.749,1.683,2.37,2.035s1.841.687,1.841,1.339h0c0,.7-.626,1.2-1.577,1.2a3.392,3.392,0,0,1-2.414-.943l-.493.582a4.132,4.132,0,0,0,2.89,1.128c1.4,0,2.414-.784,2.414-1.991h0C16.534,6.664,15.8,6.092,14.226,5.748Z" transform="translate(-1.336 -0.293)" fill="#111"/>
      </g>
      <path id="polygon38" d="M26.128,13.89l.872.837-.837.863-.863-.828Z" transform="translate(-2.991 -1.65)" fill="#111"/>
      <path id="polygon40" d="M28.5,14.762l.872.828.837-.863-.872-.837Z" transform="translate(-3.371 -1.65)" fill="#111"/>
      <path id="polygon42" d="M27.11,16.028l.678.652L28.44,16l-.678-.652Z" transform="translate(-3.206 -1.824)" fill="#111"/>
      <path id="polygon44" d="M29.93,16.448l.678.652.643-.678-.67-.652Z" transform="translate(-3.542 -1.874)" fill="#111"/>
      <path id="polygon46" d="M25.86,17.2l.67.652.652-.678L26.5,16.52Z" transform="translate(-3.058 -1.963)" fill="#111"/>
      <path id="polygon48" d="M28.43,17.288l.678.652.652-.678-.678-.652Z" transform="translate(-3.363 -1.974)" fill="#111"/>
      <path id="polygon50" d="M27.43,18.2l.476.458.449-.476-.467-.458Z" transform="translate(-3.244 -2.106)" fill="#111"/>
      <path id="polygon52" d="M29.46,18.606l.476.458.458-.476-.476-.458Z" transform="translate(-3.486 -2.154)" fill="#111"/>
      <rect id="rect54" width="1.498" height="1.498" transform="translate(29.903 12.831) rotate(-10.39)" fill="#111"/>
      <rect id="rect56" width="1.207" height="1.207" transform="translate(27.97 13.452) rotate(-10.38)" fill="#111"/>
      <rect id="rect58" width="1.207" height="1.207" transform="translate(30.266 15.103) rotate(-10.39)" fill="#111"/>
      <rect id="rect60" width="0.934" height="0.934" transform="translate(28.628 15.272) rotate(-10.38)" fill="#111"/>
      <rect id="rect62" width="0.934" height="0.934" transform="translate(30.43 17.025) rotate(-10.38)" fill="#111"/>
      <rect id="rect64" width="0.943" height="0.934" transform="translate(27.246 15.647) rotate(-10.38)" fill="#111"/>
      <rect id="rect66" width="0.934" height="0.934" transform="translate(28.916 16.85) rotate(-10.38)" fill="#111"/>
      <rect id="rect68" width="0.661" height="0.661" transform="translate(27.747 16.961) rotate(-10.39)" fill="#111"/>
      <rect id="rect70" width="0.658" height="0.658" transform="matrix(0.984, -0.181, 0.181, 0.984, 28.888, 18.227)" fill="#111"/>
      <path id="polygon72" d="M38.813,20.05l-.643,1.357,1.357.643.643-1.357Z" transform="translate(-4.521 -2.383)" fill="#111"/>
      <path id="polygon74" d="M36.65,19.34l-.52,1.084,1.093.52.511-1.093Z" transform="translate(-4.279 -2.298)" fill="#111"/>
      <path id="polygon76" d="M37.66,22.37l-.52,1.093,1.093.511.511-1.084Z" transform="translate(-4.399 -2.659)" fill="#111"/>
      <path id="polygon78" d="M36.055,21.45l-.405.846.855.405.4-.846Z" transform="translate(-4.222 -2.549)" fill="#111"/>
      <path id="polygon80" d="M36.545,24.25l-.405.846.846.405.405-.846Z" transform="translate(-4.28 -2.882)" fill="#111"/>
      <path id="polygon82" d="M34.535,20.88l-.405.846.846.405.405-.846Z" transform="translate(-4.041 -2.482)" fill="#111"/>
      <path id="polygon84" d="M35.275,23.1l-.405.846.846.405.405-.855Z" transform="translate(-4.129 -2.746)" fill="#111"/>
      <path id="polygon86" d="M34.132,22.42l-.282.6.6.282.282-.6Z" transform="translate(-4.008 -2.665)" fill="#111"/>
      <rect id="rect88" width="0.661" height="0.661" transform="translate(30.064 22.163) rotate(-64.55)" fill="#111"/>
      <path id="polygon90" d="M39.553,27.41l-1.313.714.722,1.313,1.313-.714Z" transform="translate(-4.53 -3.258)" fill="#111"/>
      <path id="polygon92" d="M38.237,25.55l-1.057.582.582,1.057,1.048-.582Z" transform="translate(-4.404 -3.037)" fill="#111"/>
      <path id="polygon94" d="M37.277,28.61l-1.057.573L36.8,30.24l1.057-.582Z" transform="translate(-4.29 -3.401)" fill="#111"/>
      <path id="polygon96" d="M36.538,26.91l-.828.449.458.819.819-.449Z" transform="translate(-4.229 -3.199)" fill="#111"/>
      <path id="polygon98" d="M35.289,29.47l-.819.449.449.819.819-.449Z" transform="translate(-4.081 -3.503)" fill="#111"/>
      <path id="polygon100" d="M35.638,25.56l-.828.449.458.819.819-.449Z" transform="translate(-4.122 -3.038)" fill="#111"/>
      <path id="polygon102" d="M34.938,27.79l-.828.449.449.819.828-.449Z" transform="translate(-4.039 -3.303)" fill="#111"/>
      <path id="polygon104" d="M34.423,26.57l-.573.317.317.573.573-.317Z" transform="translate(-4.008 -3.158)" fill="#111"/>
      <path id="polygon106" d="M33.423,28.39l-.573.317.317.573.573-.317Z" transform="translate(-3.889 -3.375)" fill="#111"/>
      <rect id="rect108" width="1.498" height="1.498" transform="translate(30.14 31.133) rotate(-82.96)" fill="#111"/>
      <rect id="rect110" width="1.198" height="1.207" transform="matrix(0.123, -0.992, 0.992, 0.123, 30.462, 28.863)" fill="#111"/>
      <rect id="rect112" width="1.207" height="1.207" transform="matrix(0.123, -0.992, 0.992, 0.123, 28.206, 30.543)" fill="#111"/>
      <rect id="rect114" width="0.934" height="0.934" transform="matrix(0.123, -0.992, 0.992, 0.123, 28.83, 28.711)" fill="#111"/>
      <rect id="rect116" width="0.934" height="0.934" transform="matrix(0.123, -0.992, 0.992, 0.123, 26.611, 29.897)" fill="#111"/>
      <rect id="rect118" width="0.934" height="0.943" transform="matrix(0.123, -0.992, 0.992, 0.123, 28.875, 27.277)" fill="#111"/>
      <rect id="rect120" width="0.934" height="0.943" transform="matrix(0.123, -0.992, 0.992, 0.123, 27.225, 28.509)" fill="#111"/>
      <rect id="rect122" width="0.661" height="0.661" transform="matrix(0.123, -0.992, 0.992, 0.123, 27.785, 27.113)" fill="#111"/>
      <rect id="rect124" width="0.661" height="0.661" transform="matrix(0.123, -0.992, 0.992, 0.123, 26.131, 27.901)" fill="#111"/>
      <path id="polygon126" d="M29.073,36.822l-1.1-1.022L26.95,36.9l1.1,1.022Z" transform="translate(-3.187 -4.256)" fill="#111"/>
      <path id="polygon128" d="M28.843,12.992l-1.1-1.022-1.022,1.1,1.1,1.022Z" transform="translate(-3.16 -1.422)" fill="#111"/>
      <path id="polygon130" d="M30.46,34.979l-.881-.819-.819.881.881.819Z" transform="translate(-3.402 -4.061)" fill="#111"/>
      <path id="polygon132" d="M27.259,35.039l-.89-.819-.819.881.89.819Z" transform="translate(-3.021 -4.068)" fill="#111"/>
      <path id="polygon134" d="M28.68,33.794l-.7-.634-.634.687.687.634Z" transform="translate(-3.235 -3.942)" fill="#111"/>
      <path id="polygon136" d="M25.852,33.423l-.687-.643-.634.687.687.643Z" transform="translate(-2.899 -3.897)" fill="#111"/>
      <path id="polygon138" d="M29.68,32.514l-.687-.634-.643.687.687.634Z" transform="translate(-3.354 -3.79)" fill="#111"/>
      <path id="polygon140" d="M27.332,32.554l-.687-.634-.634.687.687.634Z" transform="translate(-3.075 -3.794)" fill="#111"/>
      <path id="polygon142" d="M28.384,31.679,27.9,31.23l-.449.485.485.449Z" transform="translate(-3.247 -3.712)" fill="#111"/>
      <path id="polygon144" d="M26.334,31.309l-.485-.449-.449.485.485.449Z" transform="translate(-3.003 -3.668)" fill="#111"/>
      <rect id="rect146" width="1.498" height="1.498" transform="translate(17.702 30.147) rotate(-11.33)" fill="#111"/>
      <rect id="rect148" width="1.207" height="1.207" transform="translate(19.97 29.722) rotate(-11.33)" fill="#111"/>
      <rect id="rect150" width="1.207" height="1.207" transform="translate(17.65 28.117) rotate(-11.34)" fill="#111"/>
      <rect id="rect152" width="0.934" height="0.934" transform="translate(19.591 28.132) rotate(-11.33)" fill="#111"/>
      <rect id="rect154" width="0.934" height="0.934" transform="translate(20.975 27.735) rotate(-11.33)" fill="#111"/>
      <rect id="rect156" width="0.934" height="0.934" transform="translate(19.278 26.551) rotate(-11.33)" fill="#111"/>
      <rect id="rect158" width="0.661" height="0.661" transform="translate(20.78 26.637) rotate(-11.31)" fill="#111"/>
      <rect id="rect160" width="0.661" height="0.661" transform="translate(19.509 25.33) rotate(-11.34)" fill="#111"/>
      <path id="polygon162" d="M16.816,29.881l.626-1.366-1.366-.626-.626,1.366Z" transform="translate(-1.819 -3.315)" fill="#111"/>
      <path id="polygon164" d="M19.051,30.606l.5-1.093-1.1-.493-.5,1.093Z" transform="translate(-2.117 -3.45)" fill="#111"/>
      <path id="polygon166" d="M17.991,27.586l.493-1.093L17.392,26l-.5,1.093Z" transform="translate(-1.991 -3.09)" fill="#111"/>
      <rect id="rect168" width="0.934" height="0.934" transform="translate(16.578 24.902) rotate(-65.49)" fill="#111"/>
      <path id="polygon170" d="M20.955,30.952l.388-.855-.855-.388-.388.855Z" transform="translate(-2.373 -3.532)" fill="#111"/>
      <rect id="rect172" width="0.934" height="0.934" transform="translate(16.114 22.44) rotate(-65.47)" fill="#111"/>
      <rect id="rect174" width="0.934" height="0.934" transform="translate(17.936 25.386) rotate(-65.47)" fill="#111"/>
      <rect id="rect176" width="0.934" height="0.934" transform="matrix(0.415, -0.91, 0.91, 0.415, 17.248, 23.441)" fill="#111"/>
      <path id="polygon178" d="M21.609,27.582l.273-.6-.6-.273-.273.6Z" transform="translate(-2.481 -3.175)" fill="#111"/>
      <path id="polygon180" d="M21.319,25.522l.273-.6-.6-.273-.273.6Z" transform="translate(-2.446 -2.93)" fill="#111"/>
      <path id="polygon182" d="M15.949,22.534l1.3-.749-.749-1.3-1.3.74Z" transform="translate(-1.79 -2.435)" fill="#111"/>
      <path id="polygon184" d="M17.359,24.418l1.04-.6-.59-1.048-1.048.6Z" transform="translate(-1.975 -2.706)" fill="#111"/>
      <path id="polygon186" d="M18.26,21.348l1.048-.6-.59-1.048-1.048.6Z" transform="translate(-2.084 -2.341)" fill="#111"/>
      <path id="polygon188" d="M19.078,23.078l.819-.467-.467-.811-.811.467Z" transform="translate(-2.196 -2.591)" fill="#111"/>
      <path id="polygon190" d="M20.287,20.5l.811-.458-.458-.819-.819.467Z" transform="translate(-2.339 -2.284)" fill="#111"/>
      <path id="polygon192" d="M20.007,24.418l.811-.467-.467-.811-.811.458Z" transform="translate(-2.306 -2.75)" fill="#111"/>
      <path id="polygon194" d="M20.667,22.168l.819-.458-.467-.819-.819.467Z" transform="translate(-2.384 -2.483)" fill="#111"/>
      <path id="polygon196" d="M21.246,23.439l.573-.326-.326-.573-.573.326Z" transform="translate(-2.47 -2.679)" fill="#111"/>
      <path id="polygon198" d="M22.216,21.6l.573-.326-.326-.573-.573.326Z" transform="translate(-2.585 -2.46)" fill="#111"/>
      <rect id="rect200" width="1.498" height="1.498" transform="matrix(0.106, -0.994, 0.994, 0.106, 17.275, 14.356)" fill="#111"/>
      <rect id="rect202" width="1.198" height="1.207" transform="matrix(0.106, -0.994, 0.994, 0.106, 17.321, 16.384)" fill="#111"/>
      <rect id="rect204" width="1.198" height="1.207" transform="matrix(0.106, -0.994, 0.994, 0.106, 19.551, 14.653)" fill="#111"/>
      <rect id="rect206" width="0.934" height="0.934" transform="matrix(0.106, -0.994, 0.994, 0.106, 19.252, 16.269)" fill="#111"/>
      <rect id="rect208" width="0.934" height="0.934" transform="translate(21.441 15.044) rotate(-83.91)" fill="#111"/>
      <rect id="rect210" width="0.934" height="0.934" transform="matrix(0.106, -0.994, 0.994, 0.106, 19.223, 17.698)" fill="#111"/>
      <rect id="rect212" width="0.934" height="0.934" transform="matrix(0.106, -0.994, 0.994, 0.106, 20.857, 16.437)" fill="#111"/>
      <rect id="rect214" width="0.661" height="0.661" transform="matrix(0.106, -0.994, 0.994, 0.106, 20.63, 17.599)" fill="#111"/>
      <rect id="rect216" width="0.661" height="0.661" transform="translate(22.275 16.787) rotate(-83.93)" fill="#111"/>
      <path id="path218" d="M32.012,25.382a2.7,2.7,0,0,0-.6-.264A3.648,3.648,0,0,0,29.774,25a3.921,3.921,0,0,0-.7.176H29l-.379.167-.317.176a7.928,7.928,0,0,0-.714.493,15.19,15.19,0,0,1-.07-3.806h0c.564.361.405,1.357.282,1.639h0a1.762,1.762,0,0,0,.22-1.982h0a1.762,1.762,0,0,1,.256.264,1.489,1.489,0,0,1,.317.881,1.807,1.807,0,0,1,0,.379V23.5h0a1.639,1.639,0,0,0,0-1.489,1.762,1.762,0,0,0-.317-.441c-.044,0-.079-.079-.132-.115h.123a.881.881,0,0,1,.317.167,1.286,1.286,0,0,1,.449.6,1.577,1.577,0,0,1,.106.546h0a1.374,1.374,0,0,0-.035-1.137,1.3,1.3,0,0,0-.449-.432,1.1,1.1,0,0,0-.317-.141.52.52,0,0,0-.15,0h.15a1.216,1.216,0,0,1,.317,0,1.11,1.11,0,0,1,.449.176,1,1,0,0,1,.3.317h0a.881.881,0,0,0-.308-.608,1.207,1.207,0,0,0-.449-.229,1.331,1.331,0,0,0-.317-.053,1.137,1.137,0,0,0-.4.07h0a.758.758,0,0,1,.405-.282.8.8,0,0,1,.317,0,.617.617,0,0,1,.264.062h0a.881.881,0,0,0-.273-.22.714.714,0,0,0-.317-.106.8.8,0,0,0-.775.379h0c0-.062-.07-.141-.106-.211a2.757,2.757,0,0,1-.176-.582h0a2.22,2.22,0,0,1-.176.582.793.793,0,0,1-.106.211h0a.819.819,0,0,0-1.41-.132h0a.881.881,0,0,1,.987.256h0A1.172,1.172,0,0,0,25.3,21a.881.881,0,0,0-.2.5h0a.881.881,0,0,1,.194-.238,1.3,1.3,0,0,1,1.022-.273h0a1.366,1.366,0,0,0-1.022.819,1.427,1.427,0,0,0,0,.881h0a1.366,1.366,0,0,1,1-1.33h0a1.656,1.656,0,0,0-.441,2.132h0a1.674,1.674,0,0,1,.617-1.621h0a1.762,1.762,0,0,0,.211,1.982h0c-.115-.291-.273-1.278.291-1.639h0a15.19,15.19,0,0,1-.07,3.806,5.877,5.877,0,0,0-1.41-.837l-.176-.062a3.718,3.718,0,0,0-1.33-.185,3.454,3.454,0,0,0-1.374.344l-.132.07h.123a3.9,3.9,0,0,1,2.7.22,7.145,7.145,0,0,1,1.586,1.04A16.6,16.6,0,0,1,25.3,27.964h-.053a.361.361,0,0,0-.379-.15.4.4,0,0,0-.282.273.37.37,0,0,0,.079.326.52.52,0,0,0,.634.088,8.538,8.538,0,0,0,1.762-1.463l.185-.159.176.159.881.828c.106.106.22.194.317.282a3.753,3.753,0,0,0,.449.308.581.581,0,0,0,.7,0h0a.441.441,0,0,0,.07-.326.282.282,0,0,0-.106-.176.4.4,0,0,0-.167-.1.379.379,0,0,0-.388.15L29.1,27.9a4.238,4.238,0,0,1-.449-.361l-.317-.282c-.22-.2-.458-.423-.714-.643a6.353,6.353,0,0,1,.714-.546l.317-.2.449-.238a5.287,5.287,0,0,1,.7-.273,4.044,4.044,0,0,1,2.229,0h0" transform="translate(-2.654 -2.35)" fill="#111"/>
      <g id="g300" transform="translate(0 34.989)">
        <rect id="rect220" width="0.441" height="0.441" transform="translate(3.507 4.37)" fill="#111"/>
        <path id="path222" d="M36.862,43.7V40.77H36.43v2.493H34.8V40.77h-.432v2.493h-1.7V40.77H31.99a2.361,2.361,0,0,0-.731.115,1.656,1.656,0,0,0-.564.308,1.445,1.445,0,0,0-.361.467,1.392,1.392,0,0,0-.123.573,1.41,1.41,0,0,0,.15.661,1.2,1.2,0,0,0,.388.449,1.454,1.454,0,0,0,.564.264,2.431,2.431,0,0,0,.678.088Zm-5.516-.5a1.075,1.075,0,0,1-.37-.2.987.987,0,0,1-.256-.317,1.154,1.154,0,0,1-.088-.441.881.881,0,0,1,.1-.379,1.234,1.234,0,0,1,.264-.335,1.41,1.41,0,0,1,.811-.282h.423v2.026h-.441A1.516,1.516,0,0,1,31.347,43.193Z" transform="translate(-3.575 -39.836)" fill="#111"/>
        <rect id="rect224" width="0.432" height="3.859" transform="translate(24.071)" fill="#111"/>
        <rect id="rect226" width="0.441" height="0.441" transform="translate(28.635)" fill="#111"/>
        <rect id="rect228" width="0.441" height="0.441" transform="translate(32.847 4.361)" fill="#111"/>
        <rect id="rect230" width="0.441" height="0.441" transform="translate(4.256 4.37)" fill="#111"/>
        <path id="path232" d="M23.49,43.137h-.7a1.357,1.357,0,0,1-.59-.106.881.881,0,0,1-.344-.326A1.762,1.762,0,0,0,21.9,42.3V40.917h-.432v1.454a.881.881,0,0,1-.2.6.758.758,0,0,1-.6.22.881.881,0,0,1-.352-.062.731.731,0,0,1-.264-.159.758.758,0,0,1-.176-.238.67.67,0,0,1-.07-.291V40.917h-.432v1.489a.758.758,0,0,1-.062.335.714.714,0,0,1-.159.229.767.767,0,0,1-.238.123.881.881,0,0,1-.273.044H17.8v-2.22h-.423v2.22H15.111l.749-1.762a3.727,3.727,0,0,0-.361-.291c-.132-.088-.264-.159-.4-.229a2.7,2.7,0,0,0-.423-.15,1.312,1.312,0,0,0-.414-.062,1.348,1.348,0,0,0-.414.062,2.7,2.7,0,0,0-.388.141,3.058,3.058,0,0,0-.4.229l-.361.282.758,1.78h-1.5V40.644h-.687a2.4,2.4,0,0,0-.731.115,1.762,1.762,0,0,0-.555.308,1.445,1.445,0,0,0-.37.467,1.524,1.524,0,0,0,0,1.242,1.2,1.2,0,0,0,.388.449,1.647,1.647,0,0,0,.564.256,2.538,2.538,0,0,0,.687.088h.256v.123a.564.564,0,0,1-.194.485.881.881,0,0,1-.537.141,1.48,1.48,0,0,1-.361,0,2.044,2.044,0,0,1-.361-.132l-.141.414.441.141a1.938,1.938,0,0,0,.388,0,1.207,1.207,0,0,0,.881-.3,1.128,1.128,0,0,0,.282-.8V43.56h6.7a1.093,1.093,0,0,0,.564-.141,1.172,1.172,0,0,0,.4-.352,1.022,1.022,0,0,0,.423.4,1.313,1.313,0,0,0,.643.15,1.524,1.524,0,0,0,.661-.132.987.987,0,0,0,.414-.414,1.145,1.145,0,0,0,.132.176.626.626,0,0,0,.2.159,1.181,1.181,0,0,0,.3.115,1.569,1.569,0,0,0,.308,0H23.9V39.71h-.432v3.427Zm-11.983,0h-.432a1.515,1.515,0,0,1-.458-.07,1.057,1.057,0,0,1-.37-.194.881.881,0,0,1-.256-.317.943.943,0,0,1-.1-.432.988.988,0,0,1,.37-.749,1.119,1.119,0,0,1,.37-.22,1.489,1.489,0,0,1,.441-.07h.432Zm2.379,0-.67-1.648a1.612,1.612,0,0,1,.5-.308,1.656,1.656,0,0,1,.546-.1,1.515,1.515,0,0,1,.582.115,1.859,1.859,0,0,1,.485.291l-.678,1.648Z" transform="translate(-1.111 -39.71)" fill="#111"/>
        <rect id="rect234" width="0.441" height="0.441" transform="translate(2.027)" fill="#111"/>
        <rect id="rect236" width="0.441" height="0.441" transform="translate(45.622)" fill="#111"/>
        <rect id="rect238" width="0.432" height="3.859" transform="translate(41.807)" fill="#111"/>
        <rect id="rect240" width="0.441" height="0.441" transform="translate(27.886)" fill="#111"/>
        <path id="path242" d="M8.359,42a1.63,1.63,0,0,0-.07-.476,1.04,1.04,0,0,0-.2-.379,1.181,1.181,0,0,0-.388-.282,1.3,1.3,0,0,0-.52-.1H6.87V41.2h.379a.643.643,0,0,1,.291.07.7.7,0,0,1,.238.176A.652.652,0,0,1,7.9,41.7a1.128,1.128,0,0,1,0,.317v1.251H5.91V43.7H8.359Z" transform="translate(-0.685 -39.836)" fill="#111"/>
        <rect id="rect244" width="0.432" height="3.859" transform="translate(64.601)" fill="#111"/>
        <rect id="rect246" width="0.441" height="0.441" transform="translate(46.371)" fill="#111"/>
        <path id="path248" d="M69.317,39.71h-.432v3.427h-1.48a1.515,1.515,0,0,0,.132-.634,1.5,1.5,0,0,0-.123-.626,1.551,1.551,0,0,0-.326-.493,1.5,1.5,0,0,0-.5-.326,1.454,1.454,0,0,0-.617-.123,1.392,1.392,0,0,0-.608.123,1.445,1.445,0,0,0-.485.335,1.551,1.551,0,0,0-.326.493,1.6,1.6,0,0,0-.123.617,1.849,1.849,0,0,0,0,.326,1.577,1.577,0,0,0,.1.308H63.255A1.392,1.392,0,0,0,63.4,42.5a1.648,1.648,0,0,0-.123-.626,1.577,1.577,0,0,0-.335-.493,1.463,1.463,0,0,0-.493-.326,1.5,1.5,0,0,0-.626-.123,1.375,1.375,0,0,0-.6.123,1.48,1.48,0,0,0-.493.335,1.762,1.762,0,0,0-.326.493,1.6,1.6,0,0,0-.115.617,1.277,1.277,0,0,0,0,.326,1.145,1.145,0,0,0,.1.308H59.009V39.71h-.432v3.427H57.2v-.661a1.612,1.612,0,0,0-.062-.467,1.04,1.04,0,0,0-.2-.379,1.154,1.154,0,0,0-.379-.282,1.348,1.348,0,0,0-.537-.088h-1.9l.811-1.551h-.485l-.828,1.542a.881.881,0,0,0,.07.247.617.617,0,0,0,.123.185H56a.881.881,0,0,1,.361.07.582.582,0,0,1,.238.167.59.59,0,0,1,.123.247,1.613,1.613,0,0,1,0,.308v.661H52.788V40.644H52.11a2.361,2.361,0,0,0-.731.115,1.657,1.657,0,0,0-.564.308,1.313,1.313,0,0,0-.352.467,1.269,1.269,0,0,0-.132.573,1.41,1.41,0,0,0,.15.661,1.2,1.2,0,0,0,.388.449,1.454,1.454,0,0,0,.564.264,2.431,2.431,0,0,0,.678.088h8.546a1.568,1.568,0,0,0,.5.352,1.471,1.471,0,0,0,.626.132,1.709,1.709,0,0,0,.643-.123,1.665,1.665,0,0,0,.52-.361h1.894a1.63,1.63,0,0,0,.493.352,1.515,1.515,0,0,0,.634.132,1.762,1.762,0,0,0,.643-.123,1.63,1.63,0,0,0,.511-.361h2.194V39.71ZM52.356,43.137h-.423a1.516,1.516,0,0,1-.458-.07,1.075,1.075,0,0,1-.37-.2.987.987,0,0,1-.256-.317,1.154,1.154,0,0,1-.088-.441,1,1,0,0,1,.1-.423,1.339,1.339,0,0,1,.264-.326,1.445,1.445,0,0,1,.379-.211,1.427,1.427,0,0,1,.432-.07h.423v2.062Zm10.485-.194a1.057,1.057,0,0,1-.247.361,1.013,1.013,0,0,1-.361.229,1.1,1.1,0,0,1-.449.088A1.031,1.031,0,0,1,61,43.287a1.084,1.084,0,0,1-.238-.352,1.225,1.225,0,0,1-.079-.441,1.172,1.172,0,0,1,.079-.432,1.154,1.154,0,0,1,.229-.361,1.013,1.013,0,0,1,.352-.247,1.039,1.039,0,0,1,.441-.088,1.287,1.287,0,0,1,.458.079,1.428,1.428,0,0,1,.361.238,1.286,1.286,0,0,1,.238.361,1.233,1.233,0,0,1,.088.449A1.2,1.2,0,0,1,62.841,42.944Zm4.176,0a1.172,1.172,0,0,1-.238.361,1.2,1.2,0,0,1-.361.229,1.1,1.1,0,0,1-.449.088,1.04,1.04,0,0,1-.441-.088,1.013,1.013,0,0,1-.352-.247,1.154,1.154,0,0,1-.317-.793,1.2,1.2,0,0,1,.317-.793,1.066,1.066,0,0,1,.344-.247,1.048,1.048,0,0,1,.449-.088,1.233,1.233,0,0,1,.449.079,1.172,1.172,0,0,1,.361.282,1,1,0,0,1,.238.361,1.075,1.075,0,0,1,.088.449A1.049,1.049,0,0,1,67.017,42.944Z" transform="translate(-5.968 -39.71)" fill="#111"/>
        <path id="path250" d="M1.1,43.616a2.432,2.432,0,0,0,.678.088H4.6V40.77H4.165v2.493H2.456V40.77h-.7a2.361,2.361,0,0,0-.731.115,1.656,1.656,0,0,0-.564.308A1.445,1.445,0,0,0,.1,41.66a1.392,1.392,0,0,0-.123.573,1.41,1.41,0,0,0,.15.661,1.2,1.2,0,0,0,.388.449,1.454,1.454,0,0,0,.582.273Zm-.67-1.383a1,1,0,0,1,.1-.379,1.339,1.339,0,0,1,.264-.326,1.445,1.445,0,0,1,.379-.211,1.427,1.427,0,0,1,.432-.07h.423v2.018H1.6a1.516,1.516,0,0,1-.458-.07,1.075,1.075,0,0,1-.37-.2.987.987,0,0,1-.256-.317A1.013,1.013,0,0,1,.429,42.233Z" transform="translate(0.02 -39.836)" fill="#111"/>
        <rect id="rect252" width="0.441" height="0.441" transform="translate(31.27 4.37)" fill="#111"/>
        <rect id="rect254" width="0.441" height="0.441" transform="translate(30.521 4.37)" fill="#111"/>
        <path id="path256" d="M39.51,44.115a2.449,2.449,0,0,0,.044-.458v-.088H45.1V39.71h-.432v3.427H42.832l.758-1.762a2.988,2.988,0,0,0-.37-.291,4.256,4.256,0,0,0-.4-.229,2.326,2.326,0,0,0-.37-.185,1.451,1.451,0,0,0-.837,0,2.643,2.643,0,0,0-.414.15,2.212,2.212,0,0,0-.4.229,2.9,2.9,0,0,0-.361.291L41.2,43.1H39.554V40.644h-.432v3.013a2.783,2.783,0,0,1,0,.308.7.7,0,0,1-.062.2.273.273,0,0,1-.132.115.405.405,0,0,1-.194,0h-.229L38.4,44.7a1.533,1.533,0,0,0,.344,0,.881.881,0,0,0,.4-.079.59.59,0,0,0,.256-.211,1,1,0,0,0,.115-.291Zm1.427-2.643a1.648,1.648,0,0,1,.511-.308,1.621,1.621,0,0,1,.546-.1,1.445,1.445,0,0,1,.573.115,1.762,1.762,0,0,1,.485.291l-.67,1.648h-.811Z" transform="translate(-4.549 -39.71)" fill="#111"/>
        <rect id="rect258" width="0.441" height="0.441" transform="translate(1.278)" fill="#111"/>
        <path id="polygon260" d="M3.15,47.3H2.48L1.017,48.842V47.3H.48v3.066h.537v-.89l.485-.493,1.048,1.383H3.2l-1.33-1.745Z" transform="translate(-0.039 -40.613)" fill="#111"/>
        <rect id="rect262" width="0.537" height="3.075" transform="translate(3.657 6.687)" fill="#111"/>
        <path id="polygon264" d="M7.84,49.423,6.192,47.3h-.5v3.066h.537V48.181l1.692,2.185h.458V47.3H7.84Z" transform="translate(-0.659 -40.613)" fill="#111"/>
        <path id="path266" d="M11.068,49.113h.784v.555a1.233,1.233,0,0,1-.74.229,1.022,1.022,0,0,1-1.048-1.11h0a1.04,1.04,0,0,1,1-1.084,1.189,1.189,0,0,1,.881.326l.344-.405a1.674,1.674,0,0,0-1.181-.414A1.559,1.559,0,0,0,9.5,48.787h0a1.524,1.524,0,0,0,1.595,1.577,2,2,0,0,0,1.286-.476V48.646H11.068Z" transform="translate(-1.112 -40.602)" fill="#111"/>
        <path id="path268" d="M14.764,47.3H13.61v3.066h1.154a1.533,1.533,0,0,0,1.63-1.568h0a1.524,1.524,0,0,0-1.63-1.5Zm1.066,1.542a1,1,0,0,1-1.066,1.04h-.608v-2.1h.608A1.013,1.013,0,0,1,15.83,48.8Z" transform="translate(-1.601 -40.612)" fill="#111"/>
        <path id="path270" d="M18.962,47.24a1.577,1.577,0,0,0-1.612,1.551h0a1.612,1.612,0,0,0,3.216,0h0a1.56,1.56,0,0,0-1.6-1.551ZM20,48.835a1.04,1.04,0,0,1-1.04,1.084,1.057,1.057,0,0,1-1.04-1.128h0a1.04,1.04,0,0,1,1.04-1.084A1.057,1.057,0,0,1,20,48.791Z" transform="translate(-2.045 -40.605)" fill="#111"/>
        <path id="polygon272" d="M23.277,48.754,22.343,47.3H21.77v3.066H22.3V48.172l.96,1.445h.018l.978-1.454v2.2h.537V47.3h-.573Z" transform="translate(-2.571 -40.613)" fill="#111"/>
        <path id="path274" d="M29.052,47.24a1.577,1.577,0,0,0-1.612,1.551h0a1.56,1.56,0,0,0,1.6,1.577,1.577,1.577,0,0,0,1.621-1.577h0a1.559,1.559,0,0,0-1.612-1.551Zm1.04,1.595a1.042,1.042,0,1,1-2.079-.044h0a1.031,1.031,0,0,1,1.031-1.084,1.048,1.048,0,0,1,1.048,1.084Z" transform="translate(-3.245 -40.605)" fill="#111"/>
        <path id="polygon276" d="M31.86,50.366H32.4V49.115h1.551V48.63H32.4v-.846h1.753V47.3H31.86Z" transform="translate(-3.771 -40.613)" fill="#111"/>
        <path id="path278" d="M37.818,48.581c-.59-.141-.731-.247-.731-.485h0c0-.2.185-.361.5-.361a1.383,1.383,0,0,1,.881.317l.291-.414a1.762,1.762,0,0,0-1.119-.379.943.943,0,0,0-1.048.881h0c0,.564.37.758,1.022.881s.7.247.7.467h0c0,.238-.211.388-.546.388a1.392,1.392,0,0,1-.969-.4l-.326.388a1.894,1.894,0,0,0,1.278.485c.652,0,1.1-.344,1.1-.881h0C38.787,48.968,38.452,48.739,37.818,48.581Z" transform="translate(-4.319 -40.607)" fill="#111"/>
        <path id="path280" d="M40.818,47.27,39.47,50.363h.555l.308-.74H41.8l.308.74h.573L41.32,47.27Zm-.282,1.877.529-1.234.529,1.234Z" transform="translate(-4.676 -40.609)" fill="#111"/>
        <path id="path282" d="M45.546,49.059c0,.573-.3.881-.775.881s-.784-.308-.784-.881V47.3h-.537v1.762a1.216,1.216,0,0,0,1.313,1.357,1.234,1.234,0,0,0,1.322-1.383V47.27h-.537v1.789Z" transform="translate(-5.148 -40.609)" fill="#111"/>
        <path id="path284" d="M48.485,47.3H47.34v3.066h1.145A1.542,1.542,0,0,0,50.124,48.8h0a1.533,1.533,0,0,0-1.639-1.5Zm1.066,1.542a1,1,0,0,1-1.066,1.04h-.564v-2.1h.608A1,1,0,0,1,49.551,48.8Z" transform="translate(-5.612 -40.612)" fill="#111"/>
        <rect id="rect286" width="0.537" height="3.075" transform="translate(45.199 6.687)" fill="#111"/>
        <path id="path288" d="M55.374,47.27,54,50.363h.555l.317-.74h1.454l.317.74h.573L55.859,47.27Zm-.291,1.877.529-1.234.537,1.234Z" transform="translate(-6.404 -40.609)" fill="#111"/>
        <path id="path290" d="M60.761,48.279h0a.881.881,0,0,0-.256-.67,1.269,1.269,0,0,0-.881-.3H58.25v3.066h.537V49.3h.678l.758,1.066h.634L60.03,49.2A.881.881,0,0,0,60.761,48.279Zm-1.974.52V47.786h.784c.405,0,.643.185.643.511h0c0,.317-.247.511-.634.511Z" transform="translate(-6.909 -40.614)" fill="#111"/>
        <path id="path292" d="M63.017,47.27,61.66,50.363h.555l.317-.74h1.454l.317.74h.573L63.519,47.27Zm-.291,1.877.529-1.234.537,1.234Z" transform="translate(-7.315 -40.609)" fill="#111"/>
        <path id="path294" d="M67.837,48.8a.731.731,0,0,0,.441-.687h0a.687.687,0,0,0-.2-.5,1.128,1.128,0,0,0-.811-.273H65.89v3.066h1.419c.687,0,1.145-.291,1.145-.881h0A.758.758,0,0,0,67.837,48.8Zm-1.419-1h.775c.352,0,.546.15.546.388h0c0,.282-.238.423-.582.423h-.74V47.8ZM67.908,49.5c0,.282-.22.423-.59.423h-.881V49.04h.881c.432,0,.634.159.634.414Z" transform="translate(-7.818 -40.617)" fill="#111"/>
        <rect id="rect296" width="0.537" height="3.075" transform="translate(61.305 6.687)" fill="#111"/>
        <path id="path298" d="M72.61,47.27h-.5L70.76,50.363h.546l.317-.74h1.463l.308.74h.573Zm-.758,1.877.529-1.234.529,1.234Z" transform="translate(-8.397 -40.609)" fill="#111"/>
      </g>
    </g>
  </g>
</svg>
